<mxfile host="Electron" modified="2023-12-12T15:11:09.475Z" agent="Mozilla/5.0 (Windows NT 10.0; Win64; x64) AppleWebKit/537.36 (KHTML, like Gecko) draw.io/22.0.3 Chrome/114.0.5735.289 Electron/25.8.4 Safari/537.36" etag="lZemfLZlMUmxYO5vPGP9" version="22.0.3" type="device">
  <diagram name="Página-1" id="GfIBeHvkJBZ-xnpEWrp3">
    <mxGraphModel dx="1151" dy="1842" grid="1" gridSize="10" guides="1" tooltips="1" connect="1" arrows="1" fold="1" page="1" pageScale="1" pageWidth="827" pageHeight="1169" math="0" shadow="0">
      <root>
        <mxCell id="0" />
        <mxCell id="1" parent="0" />
        <mxCell id="2HN6KsuQQwCVqrs9xuk_-20" value="" style="edgeStyle=orthogonalEdgeStyle;rounded=0;orthogonalLoop=1;jettySize=auto;html=1;" edge="1" parent="1" source="2HN6KsuQQwCVqrs9xuk_-1" target="2HN6KsuQQwCVqrs9xuk_-16">
          <mxGeometry relative="1" as="geometry" />
        </mxCell>
        <mxCell id="2HN6KsuQQwCVqrs9xuk_-1" value="" style="ellipse;html=1;shape=startState;fillColor=#000000;strokeColor=#ff0000;" vertex="1" parent="1">
          <mxGeometry x="380" y="-100" width="30" height="30" as="geometry" />
        </mxCell>
        <mxCell id="2HN6KsuQQwCVqrs9xuk_-3" value="" style="shape=line;html=1;strokeWidth=6;strokeColor=#ff0000;" vertex="1" parent="1">
          <mxGeometry x="140" y="120" width="480" height="10" as="geometry" />
        </mxCell>
        <mxCell id="2HN6KsuQQwCVqrs9xuk_-4" value="" style="edgeStyle=orthogonalEdgeStyle;html=1;verticalAlign=bottom;endArrow=open;endSize=8;strokeColor=#ff0000;rounded=0;" edge="1" source="2HN6KsuQQwCVqrs9xuk_-3" parent="1">
          <mxGeometry relative="1" as="geometry">
            <mxPoint x="395" y="200" as="targetPoint" />
          </mxGeometry>
        </mxCell>
        <mxCell id="2HN6KsuQQwCVqrs9xuk_-5" value="Consultar Stock" style="rounded=1;whiteSpace=wrap;html=1;arcSize=40;fontColor=#000000;fillColor=#ffffc0;strokeColor=#ff0000;" vertex="1" parent="1">
          <mxGeometry x="335" y="200" width="120" height="40" as="geometry" />
        </mxCell>
        <mxCell id="2HN6KsuQQwCVqrs9xuk_-6" value="" style="edgeStyle=orthogonalEdgeStyle;html=1;verticalAlign=bottom;endArrow=open;endSize=8;strokeColor=#ff0000;rounded=0;entryX=0.5;entryY=0;entryDx=0;entryDy=0;" edge="1" source="2HN6KsuQQwCVqrs9xuk_-5" parent="1" target="2HN6KsuQQwCVqrs9xuk_-15">
          <mxGeometry relative="1" as="geometry">
            <mxPoint x="395" y="300" as="targetPoint" />
          </mxGeometry>
        </mxCell>
        <mxCell id="2HN6KsuQQwCVqrs9xuk_-7" value="" style="edgeStyle=orthogonalEdgeStyle;html=1;verticalAlign=bottom;endArrow=open;endSize=8;strokeColor=#ff0000;rounded=0;" edge="1" parent="1">
          <mxGeometry relative="1" as="geometry">
            <mxPoint x="550" y="190" as="targetPoint" />
            <mxPoint x="550" y="130" as="sourcePoint" />
          </mxGeometry>
        </mxCell>
        <mxCell id="2HN6KsuQQwCVqrs9xuk_-8" value="Registar lote cevada muida" style="rounded=1;whiteSpace=wrap;html=1;arcSize=40;fontColor=#000000;fillColor=#ffffc0;strokeColor=#ff0000;" vertex="1" parent="1">
          <mxGeometry x="490" y="190" width="120" height="40" as="geometry" />
        </mxCell>
        <mxCell id="2HN6KsuQQwCVqrs9xuk_-9" value="" style="edgeStyle=orthogonalEdgeStyle;html=1;verticalAlign=bottom;endArrow=open;endSize=8;strokeColor=#ff0000;rounded=0;entryX=1;entryY=0.5;entryDx=0;entryDy=0;exitX=0.5;exitY=1;exitDx=0;exitDy=0;" edge="1" source="2HN6KsuQQwCVqrs9xuk_-8" parent="1" target="2HN6KsuQQwCVqrs9xuk_-15">
          <mxGeometry relative="1" as="geometry">
            <mxPoint x="550" y="290" as="targetPoint" />
          </mxGeometry>
        </mxCell>
        <mxCell id="2HN6KsuQQwCVqrs9xuk_-10" value="" style="edgeStyle=orthogonalEdgeStyle;html=1;verticalAlign=bottom;endArrow=open;endSize=8;strokeColor=#ff0000;rounded=0;" edge="1" parent="1">
          <mxGeometry relative="1" as="geometry">
            <mxPoint x="225" y="190" as="targetPoint" />
            <mxPoint x="225" y="130" as="sourcePoint" />
            <Array as="points">
              <mxPoint x="225" y="150" />
              <mxPoint x="225" y="150" />
            </Array>
          </mxGeometry>
        </mxCell>
        <mxCell id="2HN6KsuQQwCVqrs9xuk_-11" value="Registar lote whisky a envelhecer" style="rounded=1;whiteSpace=wrap;html=1;arcSize=40;fontColor=#000000;fillColor=#ffffc0;strokeColor=#ff0000;" vertex="1" parent="1">
          <mxGeometry x="160" y="190" width="120" height="40" as="geometry" />
        </mxCell>
        <mxCell id="2HN6KsuQQwCVqrs9xuk_-12" value="" style="edgeStyle=orthogonalEdgeStyle;html=1;verticalAlign=bottom;endArrow=open;endSize=8;strokeColor=#ff0000;rounded=0;" edge="1" source="2HN6KsuQQwCVqrs9xuk_-11" parent="1">
          <mxGeometry relative="1" as="geometry">
            <mxPoint x="220" y="290" as="targetPoint" />
          </mxGeometry>
        </mxCell>
        <mxCell id="2HN6KsuQQwCVqrs9xuk_-13" value="Registar lote whisky final" style="rounded=1;whiteSpace=wrap;html=1;arcSize=40;fontColor=#000000;fillColor=#ffffc0;strokeColor=#ff0000;" vertex="1" parent="1">
          <mxGeometry x="160" y="290" width="120" height="40" as="geometry" />
        </mxCell>
        <mxCell id="2HN6KsuQQwCVqrs9xuk_-14" value="" style="edgeStyle=orthogonalEdgeStyle;html=1;verticalAlign=bottom;endArrow=open;endSize=8;strokeColor=#ff0000;rounded=0;entryX=0;entryY=0.5;entryDx=0;entryDy=0;exitX=0.431;exitY=1.019;exitDx=0;exitDy=0;exitPerimeter=0;" edge="1" source="2HN6KsuQQwCVqrs9xuk_-13" parent="1" target="2HN6KsuQQwCVqrs9xuk_-15">
          <mxGeometry relative="1" as="geometry">
            <mxPoint x="220" y="390" as="targetPoint" />
          </mxGeometry>
        </mxCell>
        <mxCell id="2HN6KsuQQwCVqrs9xuk_-15" value="" style="ellipse;html=1;shape=endState;fillColor=#000000;strokeColor=#ff0000;" vertex="1" parent="1">
          <mxGeometry x="380" y="470" width="30" height="30" as="geometry" />
        </mxCell>
        <mxCell id="2HN6KsuQQwCVqrs9xuk_-16" value="O funcionario da produção realiza os registos" style="rounded=1;whiteSpace=wrap;html=1;arcSize=40;fontColor=#000000;fillColor=#ffffc0;strokeColor=#ff0000;" vertex="1" parent="1">
          <mxGeometry x="335" width="120" height="40" as="geometry" />
        </mxCell>
        <mxCell id="2HN6KsuQQwCVqrs9xuk_-17" value="" style="edgeStyle=orthogonalEdgeStyle;html=1;verticalAlign=bottom;endArrow=open;endSize=8;strokeColor=#ff0000;rounded=0;entryX=0.534;entryY=0.089;entryDx=0;entryDy=0;entryPerimeter=0;" edge="1" source="2HN6KsuQQwCVqrs9xuk_-16" parent="1" target="2HN6KsuQQwCVqrs9xuk_-3">
          <mxGeometry relative="1" as="geometry">
            <mxPoint x="395" y="110" as="targetPoint" />
          </mxGeometry>
        </mxCell>
      </root>
    </mxGraphModel>
  </diagram>
</mxfile>
